<svg width="32" height="32" viewBox="0 0 32 32" fill="none" xmlns="http://www.w3.org/2000/svg">
<g clip-path="url(#clip0_1_8)">
<path d="M30.752 5.70463C30.3558 5.29468 29.8854 4.96948 29.3677 4.74761C28.85 4.52574 28.2951 4.41154 27.7347 4.41154C27.1743 4.41154 26.6194 4.52574 26.1017 4.74761C25.5839 4.96948 25.1135 5.29468 24.7173 5.70463C24.4488 5.98227 24.2174 6.29585 24.0293 6.63701L20.2667 5.57498C20.2783 4.69688 20.0364 3.83516 19.572 3.10004C19.1076 2.36492 18.4418 1.78982 17.6597 1.44831C16.8775 1.1068 16.0147 1.0144 15.1816 1.18293C14.3484 1.35147 13.5828 1.77327 12.9827 2.39439C12.3419 3.05883 11.9221 3.91694 11.784 4.84455C11.6459 5.77217 11.7968 6.72117 12.2147 7.55422L7.68934 11.7679C6.86829 11.2065 5.8851 10.9555 4.90586 11.0573C3.92662 11.1591 3.01135 11.6074 2.31467 12.3265C1.53569 13.1262 1.08456 14.2056 1.05504 15.3405C1.02551 16.4754 1.41985 17.5784 2.15611 18.4202C2.89238 19.2621 3.91393 19.7782 5.00847 19.8611C6.103 19.944 7.18634 19.5875 8.03334 18.8656L17.3667 25.9495C17.068 26.7232 16.9871 27.5686 17.1334 28.3879C17.2796 29.2072 17.6471 29.9669 18.1932 30.5793C18.7394 31.1916 19.4419 31.6315 20.2196 31.8482C20.9973 32.0648 21.8184 32.0493 22.588 31.8035C23.3575 31.5577 24.0441 31.0915 24.5683 30.459C25.0925 29.8265 25.433 29.0534 25.5503 28.2291C25.6675 27.4048 25.5569 26.5631 25.2311 25.8011C24.9054 25.0392 24.3778 24.3881 23.7093 23.9233L27.3613 13.2216C27.484 13.2327 27.6067 13.2382 27.7293 13.2382C28.573 13.238 29.3977 12.9792 30.0992 12.4943C30.8007 12.0094 31.3475 11.3202 31.6704 10.5139C31.9934 9.70762 32.078 8.82039 31.9135 7.96437C31.7491 7.10834 31.3431 6.32196 30.7467 5.70463H30.752ZM14.4853 3.95434C14.7838 3.64596 15.1639 3.43602 15.5777 3.35107C15.9914 3.26612 16.4203 3.30996 16.8099 3.47706C17.1996 3.64417 17.5327 3.92702 17.767 4.28988C18.0013 4.65273 18.1263 5.0793 18.1263 5.51567C18.1263 5.95203 18.0013 6.3786 17.767 6.74146C17.5327 7.10432 17.1996 7.38717 16.8099 7.55427C16.4203 7.72138 15.9914 7.76522 15.5777 7.68027C15.1639 7.59532 14.7838 7.38538 14.4853 7.077C14.2873 6.87168 14.1304 6.62801 14.0235 6.3599C13.9166 6.0918 13.8618 5.80454 13.8623 5.51452C13.8628 5.22451 13.9186 4.93745 14.0264 4.66974C14.1342 4.40203 14.292 4.15893 14.4907 3.95434H14.4853ZM3.81867 17.0091C3.62032 16.8041 3.46297 16.5607 3.35561 16.2928C3.24825 16.0249 3.19299 15.7378 3.19299 15.4478C3.19299 15.1577 3.24825 14.8706 3.35561 14.6027C3.46297 14.3348 3.62032 14.0914 3.81867 13.8864C4.11712 13.578 4.49724 13.3681 4.91101 13.2832C5.32477 13.1982 5.75359 13.242 6.14326 13.4092C6.53294 13.5763 6.86598 13.8591 7.10029 14.222C7.3346 14.5848 7.45966 15.0114 7.45966 15.4478C7.45966 15.8841 7.3346 16.3107 7.10029 16.6735C6.86598 17.0364 6.53294 17.3193 6.14326 17.4864C5.75359 17.6535 5.32477 17.6973 4.91101 17.6124C4.49724 17.5274 4.11712 17.3175 3.81867 17.0091ZM22.8387 29.1466C22.4385 29.5605 21.8959 29.7931 21.33 29.7931C20.7641 29.7931 20.2215 29.5605 19.8213 29.1466C19.4212 28.7327 19.1964 28.1713 19.1964 27.586C19.1964 27.0006 19.4212 26.4393 19.8213 26.0253C20.0195 25.8204 20.2547 25.6578 20.5135 25.5469C20.7724 25.436 21.0498 25.3789 21.33 25.3789C21.6102 25.3789 21.8876 25.436 22.1465 25.5469C22.4053 25.6578 22.6405 25.8204 22.8387 26.0253C23.0368 26.2303 23.1939 26.4736 23.3012 26.7414C23.4084 27.0091 23.4636 27.2961 23.4636 27.586C23.4636 27.8758 23.4084 28.1628 23.3012 28.4306C23.1939 28.6984 23.0368 28.9417 22.8387 29.1466ZM21.6987 23.191C20.5926 23.0913 19.4925 23.4416 18.632 24.1675L9.29867 17.0836C9.52485 16.4933 9.62595 15.8597 9.59513 15.2256C9.5643 14.5915 9.40228 13.9716 9.12 13.4078L13.6467 9.19417C14.1337 9.52806 14.6817 9.75493 15.257 9.86072C15.8322 9.96651 16.4223 9.94897 16.9907 9.80919C17.5591 9.6694 18.0937 9.41035 18.5613 9.04808C19.029 8.68582 19.4197 8.22806 19.7093 7.70318L23.4667 8.7666C23.4565 9.5003 23.6233 10.225 23.952 10.8753C24.2808 11.5255 24.761 12.0807 25.3493 12.4906L21.6987 23.191ZM29.24 10.3859C29.045 10.6039 28.8093 10.779 28.5473 10.9006C28.2853 11.0222 28.0022 11.0878 27.715 11.0935C27.4279 11.0992 27.1426 11.0449 26.8762 10.9337C26.6099 10.8226 26.368 10.657 26.165 10.4469C25.962 10.2367 25.8021 9.98629 25.6949 9.71066C25.5877 9.43503 25.5355 9.13985 25.5412 8.84282C25.547 8.54579 25.6107 8.25302 25.7285 7.98206C25.8462 7.7111 26.0157 7.46753 26.2267 7.26596C26.6268 6.85205 27.1695 6.61952 27.7353 6.61952C28.3012 6.61952 28.8439 6.85205 29.244 7.26596C29.6441 7.67986 29.8689 8.24124 29.8689 8.82659C29.8689 9.41195 29.6441 9.97333 29.244 10.3872L29.24 10.3859Z" fill="white"/>
</g>
<defs>
<clipPath id="clip0_1_8">
<rect width="32" height="32" fill="white"/>
</clipPath>
</defs>
</svg>
